<svg xmlns="http://www.w3.org/2000/svg" xmlns:xlink="http://www.w3.org/1999/xlink" version="1.1" x="0px" y="0px" viewBox="0 0 100 100" enable-background="new 0 0 100 100" xml:space="preserve"><path fill="#000000" d="M98,7.7c0-0.4-0.2-0.8-0.5-1.1c0,0-0.1-0.1-0.1-0.1c0,0-0.1-0.1-0.1-0.1C97,6,96.6,5.9,96.2,5.8  c-1.5-0.1-36.6-3-57.6,18.3c-11.9,12-16.8,29.1-14.6,51c0,0.2,0.1,0.5,0.2,0.7L11.3,88.6c-0.8,0.8-0.8,2,0,2.8  c0.4,0.4,0.9,0.6,1.4,0.6s1-0.2,1.4-0.6l12.8-12.8c0.2,0.1,0.4,0.2,0.6,0.2c4,0.5,7.9,0.7,11.6,0.7c16.5,0,29.9-4.8,39.8-14.3  C100.6,44.5,98.2,9.2,98,7.7z M76.2,62.4C65.4,72.7,50,77,30.5,75.1l22.7-22.7l21.3-4.3c1.1-0.2,1.8-1.3,1.6-2.4  c-0.2-1.1-1.3-1.8-2.4-1.6l-15.5,3.1l16-16c0.8-0.8,0.8-2,0-2.8s-2-0.8-2.8,0L50.8,49.1c0,0,0,0,0,0l-6,6v-14c0-1.1-0.9-2-2-2  s-2,0.9-2,2V58c0,0.3,0.1,0.6,0.2,0.9L27.7,72.2c-1.4-19.4,3.2-34.7,13.7-45.3C58.6,9.6,86.9,9.4,94.1,9.7  C94.3,16.9,93.9,45.4,76.2,62.4z"></path></svg>